<?xml version="1.0" encoding="UTF-8" standalone="no"?>
<svg
   id="Layer_1"
   version="1.1"
   viewBox="0 0 285.99999 142"
   sodipodi:docname="LOGO_FINAL_VERSION (1).svg"
   inkscape:version="1.4.2 (f4327f4, 2025-05-13)"
   xml:space="preserve"
   width="286"
   height="142"
   xmlns:inkscape="http://www.inkscape.org/namespaces/inkscape"
   xmlns:sodipodi="http://sodipodi.sourceforge.net/DTD/sodipodi-0.dtd"
   xmlns="http://www.w3.org/2000/svg"
   xmlns:svg="http://www.w3.org/2000/svg"><sodipodi:namedview
     id="namedview1"
     pagecolor="#505050"
     bordercolor="#eeeeee"
     borderopacity="1"
     inkscape:showpageshadow="0"
     inkscape:pageopacity="0"
     inkscape:pagecheckerboard="0"
     inkscape:deskcolor="#505050"
     inkscape:zoom="2"
     inkscape:cx="64"
     inkscape:cy="185.75"
     inkscape:window-width="1920"
     inkscape:window-height="1009"
     inkscape:window-x="-8"
     inkscape:window-y="-8"
     inkscape:window-maximized="1"
     inkscape:current-layer="Layer_1" /><!-- Generator: Adobe Illustrator 29.5.1, SVG Export Plug-In . SVG Version: 2.1.0 Build 141)  --><defs
     id="defs1"><style
       id="style1">
      .st0 {
        fill: #fff;
      }
    </style><style
       id="style1-8">
      .st0 {
        fill: #fff;
      }
    </style><filter
       id="whiteGlow"
       x="-0.00140625"
       y="-0.00140625"
       width="1.0028125"
       height="1.0028125"><feGaussianBlur
         stdDeviation="3"
         result="blur"
         id="feGaussianBlur1" /><feMerge
         id="feMerge2"><feMergeNode
           in="blur"
           id="feMergeNode1" /><feMergeNode
           in="SourceGraphic"
           id="feMergeNode2" /></feMerge></filter></defs><!-- Letra F --><!-- Letra N --><!-- Letra S --><!-- Letra T --><path
     class="st0"
     d="m 87.465951,49.05358 4.56938,-15.36023 4.67732,15.36023 z M 110.24091,62.47205 98.253771,26.21401 c -0.26984,-0.79708 -0.56967,-1.32447 -0.91148,-1.57018 -0.3418,-0.24572 -0.89948,-0.37157 -1.65505,-0.37157 h -6.62621 c -0.76156,0 -1.31924,0.13184 -1.68503,0.40153 -0.3598,0.2637 -0.65963,0.7791 -0.8875,1.54621 L 74.387434,62.47804 c -0.155911,0.19178 -0.227869,0.56934 -0.227869,1.13868 0,0.88098 0.533694,1.31248 1.595085,1.31248 h 4.96516 c 0.45574,0 0.82753,-0.018 1.10937,-0.0539 0.28783,-0.036 0.5157,-0.13784 0.68361,-0.28766 0.1739,-0.14983 0.32381,-0.37757 0.45573,-0.68321 0.13193,-0.30565 0.27584,-0.70718 0.42576,-1.19862 l 1.882921,-6.34066 h 13.64819 l 1.942889,6.2208 c 0.15591,0.53339 0.30582,0.9529 0.45574,1.25855 0.14991,0.29965 0.32381,0.53937 0.5157,0.71317 0.19189,0.1738 0.41976,0.28168 0.68361,0.31763 0.26385,0.036 0.60565,0.0539 1.02541,0.0539 h 5.31296 c 1.0614,0 1.59509,-0.43749 1.59509,-1.31248 0,-0.26369 -0.006,-0.44349 -0.03,-0.53938 -0.018,-0.0959 -0.0839,-0.29965 -0.19789,-0.5993 m -5.87064,14.59311 h -3.82581 c -0.98943,0 -1.649059,0.14383 -1.966879,0.42551 -0.32381,0.28766 -0.48572,0.86899 -0.48572,1.74398 v 21.52109 L 86.776321,79.18071 c -0.45574,-0.91694 -0.90548,-1.49827 -1.34323,-1.74398 -0.43775,-0.24572 -1.21131,-0.37157 -2.314671,-0.37157 h -3.53798 c -0.98943,0 -1.64905,0.14383 -1.96687,0.4255 -0.32382,0.28767 -0.48572,0.869 -0.48572,1.74398 v 36.31198 c 0,0.87498 0.14991,1.45631 0.45574,1.74398 0.30582,0.28167 0.94745,0.42551 1.94288,0.42551 h 3.88577 c 0.989441,0 1.643061,-0.14384 1.966881,-0.42551 0.32381,-0.28767 0.48572,-0.863 0.48572,-1.74398 V 93.96559 l 11.30353,21.64096 c 0.45574,0.91694 0.90549,1.49826 1.34324,1.74398 0.43775,0.25171 1.211299,0.37157 2.314669,0.37157 h 3.53798 c 0.98943,0 1.64306,-0.14383 1.97287,-0.42551 0.32381,-0.28767 0.48572,-0.863 0.48572,-1.74398 V 79.24064 c 0,-0.87499 -0.16191,-1.45632 -0.48572,-1.74398 -0.32382,-0.28168 -0.97744,-0.42551 -1.97287,-0.42551 m 18.95515,-3.44002 9.85836,9.8526 v 49.61058 H 8.904905 V 83.47174 l 9.846367,-9.84061 c 1.457166,-1.45631 1.457166,-3.81758 0,-5.2679 L 8.904905,58.52262 V 8.90005 H 133.1718 v 49.61058 l -9.85836,9.8526 c -1.45717,1.45631 -1.45717,3.81758 0,5.2679 M 142.0827,3.5e-4 H 0 V 62.79567 L 8.209303,71.00017 0,79.20468 V 142 H 142.0767 V 79.20468 l -8.2093,-8.20451 8.2093,-8.2045 V 3.5e-4 Z M 63.167853,109.27188 H 47.121035 L 64.019366,85.52137 c 0.263849,-0.37756 0.43775,-0.6892 0.515705,-0.91694 0.07796,-0.22774 0.113935,-0.49143 0.113935,-0.79708 v -4.56671 c 0,-0.87499 -0.161907,-1.45632 -0.485722,-1.74398 -0.323815,-0.28168 -0.983437,-0.42551 -1.978868,-0.42551 h -24.40004 c -0.881495,0 -1.451169,0.16181 -1.721015,0.48544 -0.269846,0.32362 -0.40177,1.00084 -0.40177,2.03165 v 3.42203 c 0,1.02482 0.131924,1.70803 0.40177,2.02566 0.269846,0.32363 0.83952,0.48544 1.721015,0.48544 h 15.063382 l -16.670462,23.75051 c -0.41976,0.53338 -0.62964,1.06676 -0.62964,1.60015 v 4.68657 c 0,0.87499 0.161908,1.45632 0.485722,1.74398 0.323815,0.28168 0.983438,0.42551 1.978868,0.42551 h 25.155607 c 0.8755,0 1.45117,-0.16181 1.721016,-0.48544 0.263849,-0.32362 0.40177,-1.00084 0.40177,-2.03164 v -3.42204 c 0,-1.02482 -0.137921,-1.70203 -0.40177,-2.02566 -0.269846,-0.32362 -0.83952,-0.48544 -1.721016,-0.48544 m -7.471725,-60.5659 c 0,1.56419 -0.101941,2.86469 -0.311821,3.91347 -0.20988,1.04279 -0.551685,1.89381 -1.025414,2.54106 -0.473729,0.64725 -1.103368,1.10272 -1.882922,1.37241 -0.779554,0.2637 -1.745002,0.40154 -2.88435,0.40154 H 44.914297 V 32.273 h 4.677324 c 2.170758,0 3.729866,0.64125 4.68332,1.91178 0.947458,1.27053 1.427184,3.38009 1.427184,6.3107 v 8.22248 z m 8.167327,-16.4989 C 62.532217,29.51019 60.715257,27.50851 58.412574,26.22 56.109892,24.9255 53.207552,24.27825 49.705556,24.27825 H 38.000253 c -0.989434,0 -1.649057,0.14383 -1.972871,0.42551 -0.323815,0.28766 -0.485722,0.86899 -0.485722,1.74398 v 36.31197 c 0,0.87499 0.161907,1.45632 0.485722,1.74398 0.323814,0.28168 0.97744,0.42551 1.972871,0.42551 h 13.132486 c 6.206449,0 10.446024,-2.64294 12.730716,-7.93482 0.533695,-1.21659 0.905482,-2.44517 1.109366,-3.68573 0.20988,-1.23457 0.311821,-2.80475 0.311821,-4.70455 v -7.70708 c 0,-2.16949 -0.101941,-3.88351 -0.311821,-5.14205 -0.20988,-1.25855 -0.581667,-2.43319 -1.109366,-3.5419"
     id="path1-8"
     style="display:inline;fill:#ffffff;stroke-width:0.599482" /><path
     class="st0"
     d="m 182.75782,24.26051 c 6.83761,-0.23544 13.95453,0.17197 20.82643,-0.0313 1.09364,-0.0328 4.40387,-0.0634 5.24535,0.47429 0.28574,0.62102 0.32431,1.26386 0.33002,1.93673 0.0115,1.47405 0.29431,4.63985 -0.88291,5.64712 -0.74719,0.64012 -16.30255,0.29687 -18.79986,0.29208 l -0.0329,8.46555 c 2.61946,0.0648 15.43534,-0.44836 16.63614,0.82164 0.9672,1.02364 0.35716,5.37891 0.0586,6.68645 -0.31573,0.39308 -0.52717,0.60942 -1.05149,0.64967 -1.77155,0.13649 -3.59882,0.0908 -5.37537,0.088 l -10.35214,-0.0272 c -0.0843,5.11549 0.0771,10.19892 -0.0607,15.33762 -2.46017,0.27161 -7.07405,0.36714 -9.46136,-0.0205 -0.39502,-2.90713 -0.55146,-38.55319 -0.12215,-39.67784 0.0429,-0.1126 0.15144,-0.1904 0.22644,-0.28526 0.92721,-0.3535 1.80799,-0.31392 2.81519,-0.35691 m 42.37159,0.0847 c 1.37729,-0.011 3.28866,-0.15137 4.49893,0.37534 0.89305,0.92603 11.52952,21.34589 12.33098,23.52192 0.21686,-2.36439 0.11786,-5.82466 0.11651,-8.26576 q -0.0458,-7.66917 0.0323,-15.33836 c 1.4278,-0.23287 7.04002,-0.50342 8.30888,0.12193 0.47346,1.2952 0.32058,37.0137 -0.0673,40.04383 -1.05873,0.1048 -2.55052,0.11781 -3.64427,0.16028 -1.54634,0.0233 -2.81049,0.008 -4.35346,-0.0767 -0.72602,-1.09863 -1.49111,-2.43356 -2.05281,-3.63561 -3.19505,-6.83288 -7.4394,-13.38767 -10.65802,-20.1637 -0.35695,7.63287 0.52734,15.97466 -0.0875,23.72671 -3.03207,0.16781 -5.22092,0.24384 -8.27454,0.0158 -0.45191,-3.93973 -0.28017,-12.40275 -0.24515,-16.67809 0.062,-7.53425 -0.21013,-16.02055 0.0956,-23.49042 1.28233,-0.263 2.6832,-0.26918 3.99921,-0.31712 m 9.70748,52.92654 c 5.15734,-0.66331 12.44716,1.35409 15.37971,5.92793 -1.49606,1.84274 -3.22129,3.65343 -4.83783,5.40591 -2.62418,-1.82377 -4.84242,-3.37543 -8.2012,-3.48925 -2.19337,-0.0739 -5.76691,0.27148 -5.66608,3.31655 0.19708,2.87369 4.38803,3.91903 6.69663,4.6857 6.15777,2.04422 12.1486,4.00798 12.49364,11.60465 0.42166,9.28439 -6.19902,12.85475 -14.85527,13.07912 -5.41466,-0.017 -12.09688,-2.07693 -14.86444,-7.1067 1.59951,-1.65043 3.61741,-3.78297 5.40876,-5.16519 3.57289,2.3085 5.32758,4.52543 10.0803,4.36712 2.36555,-0.0785 5.79702,-0.73984 5.35114,-3.84184 -0.53295,-3.70512 -7.50457,-4.65429 -10.29635,-6.03128 -1.78678,-0.8818 -3.37713,-1.35998 -4.91379,-2.71212 -4.62046,-3.33225 -5.48405,-10.59661 -1.93081,-15.02325 2.59667,-3.23479 5.9607,-4.57907 10.15559,-5.01735 m -50.50471,-0.26113 12.8365,0.0268 c 2.38686,-0.009 9.19231,-0.25908 11.03645,0.29532 0.69886,1.27791 0.35635,6.22314 0.0466,7.72188 -2.84899,0.24162 -7.27326,0.096 -10.22677,0.0846 -0.21973,8.57898 -0.0755,17.81168 -0.0743,26.44033 0.0189,1.25711 0.19077,4.49688 -0.23737,5.48217 -0.48291,0.28122 -0.96204,0.35774 -1.50665,0.4121 -1.43551,0.14364 -5.44802,0.45842 -6.54354,-0.64701 -0.68502,-0.69198 -0.3444,-28.35721 -0.20777,-31.63524 -2.04183,-0.0134 -8.12638,0.24901 -9.70419,-0.20001 -1.22523,-1.01079 -1.0376,-6.15469 -0.21532,-7.54201 0.80086,-0.62353 3.67818,-0.43694 4.79636,-0.43895"
     id="letters-fnst"
     style="fill:#fcd700;fill-opacity:1;stroke-width:0.679183" /><path
     d="M 0,3988 V 2855 L 147,2708 295,2560 147,2412 0,2265 V 1132 0 h 2560 2560 v 1132 1133 l -147,147 -148,148 148,148 147,147 V 3988 5120 H 2560 0 Z m 4800,-80 v -892 l -189,-190 c -273,-276 -273,-256 0,-532 l 189,-190 V 1212 320 H 2560 320 v 893 892 l 166,165 c 206,205 224,228 224,290 0,62 -18,85 -224,290 l -166,165 v 892 893 h 2240 2240 z"
     id="path2-2"
     transform="matrix(0.02767266,0,0,-0.02765657,144.11679,141.80122)"
     style="fill:#fcd700;fill-opacity:1;filter:url(#whiteGlow)" /></svg>
